HIERARCHY
ROOT Hips
{
  OFFSET 0 89.5177 0.535
  CHANNELS 6 Xposition Yposition Zposition Zrotation Xrotation Yrotation
  JOINT Spine
  {
    OFFSET 12.0259 -0.162855 1.69034e-005
    CHANNELS 3 Zrotation Xrotation Yrotation
    JOINT Spine1
    {
      OFFSET 15.3169 -0.0121922 0
      CHANNELS 3 Zrotation Xrotation Yrotation
      JOINT Spine2
      {
        OFFSET 15.3176 -0.0121908 0
        CHANNELS 3 Zrotation Xrotation Yrotation
        JOINT Neck
        {
          OFFSET 19.9142 1.56338 0
          CHANNELS 3 Zrotation Xrotation Yrotation
          JOINT Head
          {
            OFFSET 6.92651 0 0
            CHANNELS 3 Zrotation Xrotation Yrotation
            End Site
            {
              OFFSET 20.7666 0 0
            }
          }
          JOINT LeftShoulder
          {
            OFFSET -6.20654 0.708824 7.28219
            CHANNELS 3 Zrotation Xrotation Yrotation
            JOINT LeftArm
            {
              OFFSET 14.108 0 -1.52588e-005
              CHANNELS 3 Zrotation Xrotation Yrotation
              JOINT LeftForeArm
              {
                OFFSET 28.5802 0 0
                CHANNELS 3 Zrotation Xrotation Yrotation
                JOINT LeftHand
                {
                  OFFSET 27.092 0 0
                  CHANNELS 3 Zrotation Xrotation Yrotation
                  End Site
                  {
                    OFFSET 9.55928 -0.186424 0.145352
                  }
                }
              }
            }
          }
          JOINT RightShoulder
          {
            OFFSET -6.20654 0.708866 -7.28218
            CHANNELS 3 Zrotation Xrotation Yrotation
            JOINT RightArm
            {
              OFFSET 14.108 0 1.52588e-005
              CHANNELS 3 Zrotation Xrotation Yrotation
              JOINT RightForeArm
              {
                OFFSET 28.5802 0 0
                CHANNELS 3 Zrotation Xrotation Yrotation
                JOINT RightHand
                {
                  OFFSET 27.092 0 0
                  CHANNELS 3 Zrotation Xrotation Yrotation
                  End Site
                  {
                    OFFSET 9.55929 -0.186417 -0.145354
                  }
                }
              }
            }
          }
        }
      }
    }
  }
  JOINT LeftUpLeg
  {
    OFFSET 0.005 -0.535 8.837
    CHANNELS 3 Zrotation Xrotation Yrotation
    JOINT LeftLeg
    {
      OFFSET 39.9035 0 0
      CHANNELS 3 Zrotation Xrotation Yrotation
      JOINT LeftFoot
      {
        OFFSET 39.6689 0 0
        CHANNELS 3 Zrotation Xrotation Yrotation
        JOINT LeftToe
        {
          OFFSET 10.1624 13.6296 0
          CHANNELS 3 Zrotation Xrotation Yrotation
          End Site
          {
            OFFSET 8.38147 0 0
          }
        }
      }
    }
  }
  JOINT RightUpLeg
  {
    OFFSET 0.005 -0.535 -8.837
    CHANNELS 3 Zrotation Xrotation Yrotation
    JOINT RightLeg
    {
      OFFSET 39.9035 0 0
      CHANNELS 3 Zrotation Xrotation Yrotation
      JOINT RightFoot
      {
        OFFSET 39.6689 0 0
        CHANNELS 3 Zrotation Xrotation Yrotation
        JOINT RightToe
        {
          OFFSET 10.1624 13.6296 0
          CHANNELS 3 Zrotation Xrotation Yrotation
          End Site
          {
            OFFSET 8.38147 0 0
          }
        }
      }
    }
  }
}
MOTION
Frames:	15
Frame Time:	0.0333333
556.868 85.2726 -128.758 149.456 -84.248 58.6936 -1.17323 -0.304276 -0.83987 -2.35084 -0.590796 -1.68564 -2.35084 -0.590796 -1.68565 -8.30748e-012 -9.0191e-006 -5.27751e-005 10.3559 10.0517 -6.99631 -179.75 -14.3568 -88.9909 -24.048 -53.5633 -2.92191 -7.44415e-006 3.18055e-015 7.95139e-016 -39.7855 -25.6704 -26.502 179.505 6.6976 94.2388 53.5427 58.3697 -59.8057 -0.83804 1.59028e-015 -0 -40.2138 21.8879 25.2845 -18.802 3.13629 177.497 -36.6761 0 -2.38542e-015 23.7282 5.03545 3.70842 90 -7.76503e-018 -9.93923e-017 -17.7358 -6.23982 -178.089 -35.342 3.97569e-016 3.97569e-016 22.3487 -4.44382 -2.62017 90 3.60194e-021 1.98785e-016 
556.941 85.2703 -128.542 147.686 -84.099 56.9586 -1.14233 -0.318804 -0.844033 -2.28928 -0.62022 -1.69411 -2.28928 -0.62022 -1.69412 -8.30768e-012 -9.0191e-006 -5.27751e-005 10.2488 10.2622 -7.04817 -179.781 -14.4105 -89.1212 -24.3312 -53.5472 -3.14184 -7.44464e-006 3.18055e-015 7.95139e-016 -39.8269 -26.0794 -26.9614 179.487 6.6483 94.4229 53.8937 58.4243 -60.2281 -0.571299 0 -3.97569e-016 -40.319 22.0986 25.7115 -19.0725 3.22797 177.539 -36.8719 7.95139e-016 7.95139e-016 23.9325 5.28027 3.62372 90 -6.21202e-018 -0 -17.9476 -6.29198 -178.102 -35.4337 -7.95139e-016 -3.97569e-016 22.2714 -4.26093 -2.68134 90 -1.06399e-020 -5.96354e-016 
557.001 85.2476 -128.306 145.84 -83.939 55.2302 -1.09597 -0.331558 -0.851971 -2.19681 -0.646259 -1.70999 -2.19681 -0.646259 -1.70999 -8.30728e-012 -9.0191e-006 -5.27751e-005 9.9644 10.3736 -7.0808 -179.817 -14.3884 -89.2638 -24.4378 -53.4605 -3.29701 -7.44509e-006 9.54166e-015 -7.95139e-016 -39.8972 -26.0447 -27.0546 179.461 6.60217 94.6794 54.0525 58.4776 -60.4879 -0.388068 1.59028e-015 5.96354e-016 -40.3471 22.3389 26.0067 -19.3633 3.23921 177.457 -37.0812 7.95139e-016 -7.95139e-016 24.0817 5.41112 3.56136 90 -3.10601e-018 -0 -18.2478 -6.45143 -178.262 -35.6884 -7.95139e-016 1.19271e-015 22.271 -4.21568 -2.71756 90 6.42188e-021 -0 
557.067 85.211 -128.083 144.403 -83.7856 53.8317 -1.04981 -0.344134 -0.844174 -2.10463 -0.672241 -1.69437 -2.10463 -0.672241 -1.69438 -8.30753e-012 -9.0191e-006 -5.27751e-005 9.76229 10.55 -7.24428 -179.846 -14.4433 -89.3838 -24.6356 -53.2034 -3.48972 -7.44551e-006 3.18055e-015 -0 -40.144 -26.0483 -27.2555 179.443 6.60689 94.826 53.6102 58.5459 -60.2645 -0.301497 3.18055e-015 1.98785e-015 -40.6431 22.5489 26.3563 -19.7048 3.29943 177.484 -37.4244 0 -0 24.3888 5.54357 3.47934 90 -1.2424e-017 -0 -18.5327 -6.65854 -178.365 -35.9417 -7.95139e-016 -0 22.2913 -4.10303 -2.74005 90 -7.34606e-021 1.98785e-016 
557.143 85.1769 -127.886 143.406 -83.6656 52.799 -1.01362 -0.340038 -0.804799 -2.03196 -0.665287 -1.61535 -2.03196 -0.665287 -1.61536 -8.30751e-012 -9.0191e-006 -5.27751e-005 9.64782 10.5231 -7.31189 -179.871 -14.4096 -89.4806 -24.6622 -53.1611 -3.51612 -7.4459e-006 3.18055e-015 -1.59028e-015 -40.2235 -25.7527 -27.2244 179.412 6.58649 95.1087 54.8083 58.8871 -61.3878 -0.441239 4.77083e-015 -2.78299e-015 -40.5096 22.1106 25.9342 -20.0406 3.55759 177.655 -37.8309 0 -3.97569e-016 24.8435 5.81311 3.36978 90 -6.21202e-018 -3.97569e-016 -18.75 -6.89107 -178.38 -36.1162 -7.95139e-016 -1.59028e-015 22.2855 -4.00782 -2.77166 90 7.10909e-023 -1.98785e-016 
557.214 85.1692 -127.734 142.821 -83.6633 52.222 -0.980887 -0.317755 -0.784051 -1.96607 -0.621547 -1.57328 -1.96607 -0.621547 -1.57329 -8.30748e-012 -9.0191e-006 -5.27751e-005 9.6051 10.4131 -7.23618 -179.899 -14.4227 -89.5927 -24.731 -53.0663 -3.52265 -7.44626e-006 3.18055e-015 7.95139e-016 -40.0834 -25.6774 -27.0869 179.389 6.70678 95.2184 55.3393 59.2387 -62.0516 -0.48984 -3.18055e-015 -1.98785e-016 -40.4756 21.919 25.6978 -20.1697 3.51601 177.698 -37.9448 -1.59028e-015 -1.19271e-015 24.8419 5.74716 3.31329 90 -6.21202e-018 -0 -18.8462 -6.97865 -178.389 -36.1921 -3.97569e-016 -1.98785e-016 22.2288 -4.01001 -2.8072 90 -1.05452e-021 -3.97569e-016 
557.296 85.1632 -127.631 143.377 -83.7677 52.7709 -0.961193 -0.268659 -0.761185 -1.9259 -0.524022 -1.52661 -1.9259 -0.524022 -1.52662 -8.30747e-012 -9.0191e-006 -5.27751e-005 9.60337 10.3546 -7.18324 -179.925 -14.3249 -89.6985 -24.727 -53.1892 -3.5443 -7.44659e-006 0 -1.59028e-015 -40.105 -25.6549 -27.0626 179.375 6.69037 95.3465 55.8049 59.4624 -62.531 -0.44105 -3.18055e-015 5.96354e-016 -40.5621 21.9154 25.7131 -20.2333 3.60036 177.8 -38.0256 7.95139e-016 -7.95139e-016 24.8152 5.75993 3.25594 90 -1.86361e-017 -3.97569e-016 -18.9152 -7.07691 -178.331 -36.2312 3.97569e-016 -7.95139e-016 22.1414 -4.12242 -2.88721 90 2.10429e-020 -1.98785e-016 
557.366 85.1658 -127.574 144.031 -83.9235 53.4336 -0.943755 -0.242179 -0.729775 -1.89054 -0.47182 -1.46328 -1.89054 -0.47182 -1.46329 -8.3074e-012 -9.0191e-006 -5.27751e-005 9.58271 10.2524 -7.0589 -179.919 -14.4763 -89.6742 -24.8603 -53.1778 -3.61168 -7.44689e-006 1.27222e-014 -0 -40.0635 -25.6273 -27.023 179.367 6.57053 95.5145 56.1628 59.5945 -62.8987 -0.45701 -3.18055e-015 -8.94531e-016 -40.5247 21.9047 25.7982 -20.1948 3.60282 177.857 -38.0154 2.38542e-015 -3.97569e-016 24.6928 5.6477 3.21691 90 -6.21202e-018 -3.97569e-016 -18.8888 -6.85473 -178.217 -36.2308 0 -5.96354e-016 22.0754 -4.09085 -2.95139 90 -8.6494e-021 -1.98785e-016 
557.447 85.1559 -127.557 144.73 -84.0359 54.1241 -0.94284 -0.215112 -0.702344 -1.88826 -0.418156 -1.40796 -1.88826 -0.418156 -1.40797 -8.30746e-012 -9.0191e-006 -5.27751e-005 9.64627 10.1938 -6.98069 -179.914 -14.5617 -89.657 -24.8842 -53.0796 -3.62774 -7.44716e-006 3.18055e-015 -7.95139e-016 -40.0233 -25.7486 -27.147 179.357 6.54318 95.6298 56.1448 59.6525 -62.9395 -0.4532 1.59028e-015 -2.98177e-016 -40.463 21.8731 25.7752 -20.1868 3.6244 177.944 -38.0755 3.18055e-015 -0 24.6861 5.54322 3.16493 90 -6.21202e-018 -0 -18.8838 -6.91485 -178.142 -36.257 3.97569e-016 3.97569e-016 22.0452 -4.20899 -3.02832 90 4.12327e-021 3.97569e-016 
557.516 85.1432 -127.56 145.122 -84.1056 54.4885 -0.946624 -0.196262 -0.682713 -1.89907 -0.380717 -1.36841 -1.89907 -0.380717 -1.36842 -8.30749e-012 -9.0191e-006 -5.27751e-005 9.55043 9.96471 -6.7211 -179.911 -14.6052 -89.6484 -25.054 -53.3147 -3.79784 -7.4474e-006 9.54166e-015 1.59028e-015 -40.1116 -25.9149 -27.2778 179.358 6.5593 95.6005 56.0102 59.7644 -62.8236 -0.44938 -1.59028e-015 7.95139e-016 -40.5649 21.9098 25.8062 -20.1897 3.74154 178.065 -38.1621 7.95139e-016 1.19271e-015 24.7335 5.59285 3.11263 90 1.2424e-017 5.96354e-016 -18.8625 -6.81033 -178.031 -36.2809 0 1.59028e-015 22.0485 -4.16704 -3.08036 90 -1.23224e-021 1.98785e-016 
557.595 85.1388 -127.589 145.216 -84.1755 54.5792 -0.952225 -0.17755 -0.661086 -1.90644 -0.343613 -1.32486 -1.90644 -0.343613 -1.32487 -8.30743e-012 -9.0191e-006 -5.27751e-005 9.54261 9.83427 -6.65524 -179.899 -14.5416 -89.5973 -24.9306 -53.5892 -3.77684 -7.44763e-006 1.59028e-014 1.59028e-015 -40.1413 -25.8971 -27.2981 179.365 6.56128 95.5393 56.0168 59.8926 -62.7107 -0.49385 0 -9.93923e-016 -40.7341 21.8045 25.8512 -20.1275 3.63293 178.104 -38.1459 7.95139e-016 -0 24.6108 5.48786 3.06995 90 -6.21202e-018 1.98785e-016 -18.7977 -6.86555 -177.96 -36.2715 -3.97569e-016 -1.98785e-016 22.0434 -4.21325 -3.15481 90 -3.80692e-020 1.98785e-016 
557.666 85.1276 -127.637 145.165 -84.1964 54.521 -0.954221 -0.169491 -0.645746 -1.91464 -0.327704 -1.29406 -1.91464 -0.327704 -1.29407 -8.30746e-012 -9.0191e-006 -5.27751e-005 9.51891 9.72162 -6.65791 -179.909 -14.4137 -89.6335 -24.6265 -53.8931 -3.62691 -7.44782e-006 -9.54166e-015 7.95139e-016 -40.0719 -25.7903 -27.2296 179.37 6.53374 95.5158 56.5583 60.0348 -63.0196 -0.465831 -1.59028e-015 6.95746e-016 -40.6526 21.6352 25.6965 -20.1128 3.77767 178.211 -38.2345 -7.95139e-016 -7.95139e-016 24.7604 5.62245 3.00171 90 -6.21202e-018 -0 -18.7509 -6.87143 -177.888 -36.2841 0 1.59028e-015 22.0773 -4.1992 -3.21472 90 -4.65646e-021 -1.98785e-016 
557.737 85.1145 -127.71 144.855 -84.1803 54.1941 -0.956701 -0.185464 -0.626085 -1.91538 -0.359972 -1.25501 -1.91538 -0.359972 -1.25502 -8.30748e-012 -9.0191e-006 -5.27751e-005 9.33205 9.59352 -6.60376 -179.895 -14.4032 -89.578 -24.5169 -53.9799 -3.60358 -7.448e-006 6.36111e-015 -7.95139e-016 -40.0278 -25.7824 -27.2162 179.381 6.48697 95.4647 56.0457 59.9316 -62.4408 -0.40563 1.59028e-015 -1.98785e-016 -40.7225 21.8231 25.9059 -20.0959 3.76494 178.285 -38.3043 7.95139e-016 7.95139e-016 24.8483 5.65673 2.9399 90 -1.2424e-017 1.98785e-016 -18.6889 -6.95515 -177.833 -36.2901 -3.97569e-016 5.96354e-016 22.1326 -4.24529 -3.26792 90 -2.91473e-020 -1.98785e-016 
557.805 85.1122 -127.799 144.774 -84.2076 54.1402 -0.964449 -0.187951 -0.622345 -1.93089 -0.364923 -1.24759 -1.93089 -0.364923 -1.2476 -8.30743e-012 -9.0191e-006 -5.27751e-005 9.2788 9.3358 -6.53909 -179.889 -14.3879 -89.5529 -24.3993 -54.1074 -3.47942 -7.44816e-006 -3.18055e-015 7.95139e-016 -39.9607 -25.6149 -27.0553 179.391 6.45928 95.3912 55.8898 59.8679 -62.1763 -0.34725 -4.77083e-015 -1.2921e-015 -40.8379 21.83 26.029 -19.9871 3.66448 178.29 -38.2483 1.59028e-015 -1.19271e-015 24.7802 5.56649 2.89293 90 0 1.98785e-016 -18.5965 -7.04097 -177.816 -36.2734 -7.95139e-016 1.78906e-015 22.1766 -4.32204 -3.32401 90 1.27016e-020 1.98785e-016 
557.859 85.1147 -127.89 145.184 -84.2643 54.5761 -0.980056 -0.180641 -0.625254 -1.96204 -0.350085 -1.25333 -1.96204 -0.350085 -1.25334 -8.30743e-012 -9.0191e-006 -5.27751e-005 9.39942 9.11515 -6.47223 -179.871 -14.3881 -89.4814 -24.4241 -54.1158 -3.45375 -7.44829e-006 0 -7.95139e-016 -39.9814 -25.532 -26.9204 179.405 6.47277 95.2633 55.9351 59.869 -62.1537 -0.38224 3.18055e-015 2.98177e-016 -40.7512 21.8331 25.9774 -19.8592 3.5676 178.291 -38.1372 1.59028e-015 1.19271e-015 24.6109 5.45217 2.86252 90 -6.21202e-018 -1.98785e-016 -18.5 -6.89609 -177.754 -36.2393 3.97569e-016 -7.95139e-016 22.2156 -4.261 -3.36319 90 -8.79158e-021 -1.98785e-016 
